HIERARCHY
ROOT simHips
{
  OFFSET 92.8241 99.6983 57.7259
  CHANNELS 6 Xposition Yposition Zposition Zrotation Xrotation Yrotation
  JOINT simSpine
  {
    OFFSET -0.000355721 21.3001 -0.016921
    CHANNELS 3 Zrotation Xrotation Yrotation
    JOINT simLeftArm
    {
      OFFSET 13.5181 21.3012 0
      CHANNELS 3 Zrotation Xrotation Yrotation
      JOINT simLeftForeArm
      {
        OFFSET 24.5783 0 0
        CHANNELS 3 Zrotation Xrotation Yrotation
        JOINT simLeftHand
        {
          OFFSET 24.5783 0 0
          CHANNELS 3 Zrotation Xrotation Yrotation
          End Site
          {
            OFFSET 7.32568 1.52588e-05 0.0169305
          }
        }
      }
    }
    JOINT simHead
    {
      OFFSET 0 27.4458 -0.00489235
      CHANNELS 3 Zrotation Xrotation Yrotation
      End Site
      {
        OFFSET 0 0 0
      }
    }
    JOINT simRightArm
    {
      OFFSET -13.5174 21.3012 0
      CHANNELS 3 Zrotation Xrotation Yrotation
      JOINT simRightForeArm
      {
        OFFSET -24.5783 0 0
        CHANNELS 3 Zrotation Xrotation Yrotation
        JOINT simRightHand
        {
          OFFSET -24.5783 0 0
          CHANNELS 3 Zrotation Xrotation Yrotation
          End Site
          {
            OFFSET -7.32568 1.52588e-05 0.0169305
          }
        }
      }
    }
  }
  JOINT simRightUpLeg
  {
    OFFSET -8.44614 -9.41038 0.835684
    CHANNELS 3 Zrotation Xrotation Yrotation
    JOINT simRightLeg
    {
      OFFSET 0 -40.9639 0
      CHANNELS 3 Zrotation Xrotation Yrotation
      JOINT simRightFoot
      {
        OFFSET 0 -40.9639 0
        CHANNELS 3 Zrotation Xrotation Yrotation
        End Site
        {
          OFFSET 0.50614 -9.67405 14.6709
        }
      }
    }
  }
  JOINT simLeftUpLeg
  {
    OFFSET 8.44614 -9.41038 0.835684
    CHANNELS 3 Zrotation Xrotation Yrotation
    JOINT simLeftLeg
    {
      OFFSET 0 -40.9639 0
      CHANNELS 3 Zrotation Xrotation Yrotation
      JOINT simLeftFoot
      {
        OFFSET 0 -40.9639 0
        CHANNELS 3 Zrotation Xrotation Yrotation
        End Site
        {
          OFFSET -0.50614 -9.67405 14.6709
        }
      }
    }
  }
}
MOTION
Frames:	17
Frame Time:	0.0333333
-18.9846 96.8138 19.8756 0.554562 4.23633 -155.946 4.94952 12.9276 0.308146 -32.2868 55.4722 -57.846 17.9686 -15.3342 -62.9965 -7.8377 -48.2909 20.4626 -10.8919 9.19908 -1.84671 61.0356 16.266 40.4168 -21.3587 -19.3168 52.2171 37.7151 -45.9994 28.6125 -6.10728 -6.08708 9.28522 4.93764 24.4836 -1.30617 3.6373 -13.3181 2.77286 13.3169 -14.4898 9.64874 0.0734868 0.99289 -0.399609 -8.22756 12.9595 1.35706 
-21.453 96.4056 18.6659 0.190388 4.49068 -156.667 3.21742 13.4318 0.298331 -32.4558 55.0905 -57.8484 17.9563 -15.294 -62.8895 -8.38098 -47.8693 19.9625 -9.48071 9.28198 -2.42778 61.5238 15.6473 40.611 -21.333 -19.2327 52.0607 37.901 -46.1452 28.7839 -7.94278 -6.91634 9.29934 6.56859 29.0895 -2.07051 3.84205 -15.0723 3.31016 12.3343 -13.7677 7.25868 0.0329125 2.21449 -0.335508 -9.64609 16.2079 4.29998 
-23.8195 96.4894 17.6698 -0.693353 4.38088 -157.732 0.596403 14.0868 0.826423 -31.0303 54.6253 -59.3514 17.8964 -15.1227 -62.4354 -9.50137 -46.1889 19.3031 -8.25795 9.37163 -2.99821 62.55 15.2461 40.6261 -21.3241 -19.2725 52.1362 36.8847 -45.8937 28.073 -10.5195 -8.75816 9.30246 8.39444 34.4141 -3.10317 5.02874 -14.5628 4.14626 10.6922 -12.4148 6.95893 -0.393394 3.17809 -0.132783 -8.74359 14.5714 4.67342 
-26.2509 96.8872 16.7311 -0.803573 4.4475 -159.223 -0.726541 14.4835 1.63564 -29.1016 54.5443 -61.2587 17.8752 -15.0637 -62.2785 -11.4985 -45.1986 18.9085 -8.48757 9.58158 -2.7527 63.6634 15.8921 40.0772 -21.4012 -19.4635 52.4893 35.1695 -45.5778 26.8545 -12.4272 -11.399 8.72566 10.1985 39.9426 -4.30568 6.89534 -11.3233 5.0965 10.5419 -12.3955 8.69507 -1.68649 6.72925 0.0405064 -7.01947 11.9306 3.83697 
-28.6156 97.3281 15.8395 -0.325958 4.21665 -160.867 -1.28458 14.269 2.43638 -27.2574 55.1376 -62.5225 17.9842 -15.3746 -63.103 -11.3561 -44.8707 19.4739 -9.28627 9.72435 -2.12639 64.6532 16.6894 39.4703 -21.4946 -19.6764 52.8815 32.0467 -43.6414 23.8762 -13.9087 -14.7115 7.05963 11.969 44.4979 -5.58455 8.16559 -6.63983 4.72752 10.2624 -12.0636 9.41743 -2.36217 8.45052 0.138443 -4.63602 9.71898 4.2667 
-30.6414 97.7818 14.8695 0.0579615 4.2081 -161.641 -1.78974 14.3896 2.61015 -25.0799 55.7861 -63.6649 18.1254 -15.8125 -64.2596 -10.9145 -44.1952 20.5737 -9.49125 9.56558 -1.71993 65.7489 16.7571 39.4645 -21.5077 -19.7373 52.9945 28.5671 -41.3916 21.0607 -14.6386 -16.6799 5.12006 12.8982 46.6158 -6.29964 8.79782 -2.80173 1.46302 9.6007 -11.1341 8.37116 -2.496 8.84672 0.176494 -3.44442 8.13824 5.65283 
-32.337 98.2827 13.8559 0.581917 4.19808 -162.087 -2.10417 14.4508 2.78753 -23.115 56.3583 -64.5967 18.2267 -16.1452 -65.1347 -10.4112 -43.2688 21.3911 -9.25234 9.38581 -1.4571 66.6891 16.7733 39.3721 -21.5926 -19.9405 53.3679 26.5078 -40.7851 19.5666 -14.6219 -17.354 2.95871 12.435 45.6026 -5.97367 8.11019 -0.288481 -2.51261 9.03797 -9.79569 8.39304 -2.20551 8.06226 0.164695 -2.53916 7.47614 5.80006 
-33.7597 98.7758 12.8573 1.22463 4.02524 -162.125 -2.19263 14.356 2.82267 -22.0168 56.5605 -65.1118 18.2756 -16.3155 -65.5813 -9.15163 -42.4761 22.311 -8.74438 9.2156 -1.29238 67.558 16.9122 38.8956 -21.7332 -20.28 53.9901 25.3587 -40.4274 18.8447 -14.0835 -17.2235 0.955889 11.1132 42.4482 -5.00669 7.42197 1.37348 -4.31365 8.58978 -8.57481 8.53929 -1.73819 6.74542 0.13237 -2.19191 7.14152 5.55384 
-34.9716 99.1913 11.8996 1.76521 3.65029 -162.041 -2.2831 14.0944 2.94769 -22.9936 56.4533 -64.01 18.2879 -16.3522 -65.6769 -9.24031 -43.5963 21.8866 -8.27457 9.04409 -1.13622 68.0564 17.029 38.4239 -21.8255 -20.5011 54.394 24.8264 -39.7701 18.6511 -13.4484 -16.882 -0.76479 9.56327 38.2492 -3.9151 7.20644 2.73587 -4.07885 8.1004 -7.62127 8.97216 -1.27012 5.41375 0.101944 -1.91779 6.94143 4.94901 
-36.0134 99.4759 10.9286 2.01978 3.25311 -161.879 -2.52022 13.9309 2.93902 -26.6248 55.9079 -60.4667 18.2598 -16.2575 -65.4291 -11.0571 -45.0788 19.9264 -8.03933 8.94496 -0.725508 68.0365 17.3706 38.3773 -21.8758 -20.6353 54.6391 26.5394 -41.4615 19.7513 -12.7888 -16.4394 -2.0137 7.90461 33.7495 -2.85468 7.28115 3.27008 -2.67936 7.56583 -6.977 9.17526 -1.02562 4.77363 0.0715616 -1.56669 6.42914 4.53479 
-36.8793 99.6611 9.94891 2.15625 2.88094 -161.703 -2.74602 13.8293 2.9386 -31.0992 54.7049 -56.3869 18.1824 -15.992 -64.7319 -13.5081 -45.2275 18.5465 -8.01889 9.03809 -0.28279 67.7806 17.8232 38.4898 -21.9199 -20.7363 54.8228 28.3342 -43.116 21.2784 -11.6393 -15.5611 -2.90147 5.45114 28.0552 -1.5602 7.80936 4.23869 -0.480426 7.05604 -6.40103 9.07064 -0.843116 4.29981 0.0551121 -1.26108 5.86131 4.47041 
-37.5512 99.7859 8.96374 2.1979 2.49768 -161.308 -2.9107 13.7949 2.86073 -33.9791 53.4856 -53.9048 18.0959 -15.7169 -64.0074 -15.3056 -43.5816 17.7695 -8.16745 9.23916 0.0100705 67.5944 18.2714 38.6188 -21.9583 -20.8689 55.0653 29.9588 -44.2883 22.364 -10.4869 -13.9012 -4.09797 3.20643 20.5862 -0.602087 8.64012 5.82909 2.26665 6.69733 -6.12595 8.8897 -0.848083 4.33751 0.060198 -1.05926 5.13539 4.28086 
-37.9922 99.841 7.96622 2.13938 2.02747 -160.67 -3.0923 13.6956 2.86401 -35.1622 52.6368 -53.138 18.0293 -15.5157 -63.4765 -17.527 -41.6383 16.499 -8.26573 9.5554 0.0944696 67.5488 18.7773 38.5483 -22.0242 -21.069 55.4301 32.3425 -45.873 23.919 -9.33118 -11.3629 -5.60837 1.43322 11.0972 -0.100774 9.41537 8.50987 5.07718 6.46339 -6.20507 8.54019 -1.01671 4.80695 0.0841744 -0.970613 4.32851 4.06011 
-38.2023 99.7865 6.90777 1.92264 1.50643 -159.761 -3.36985 13.5813 2.89347 -35.4561 52.1055 -53.314 18.0054 -15.4388 -63.2728 -17.4112 -39.7883 17.2936 -8.25386 9.88471 0.036159 67.8592 19.2505 38.1976 -22.1853 -21.4491 56.1186 33.9384 -47.3233 24.698 -8.04113 -8.42014 -6.34674 -0.091997 0.87615 0.0371725 10.2537 11.6568 6.79463 6.309 -6.56975 8.18519 -1.35076 5.75841 0.113735 -0.929288 3.38201 3.61466 
-38.1973 99.6718 5.80167 1.61284 0.992617 -158.617 -3.62772 13.4607 2.85232 -35.8154 51.7074 -53.5418 17.988 -15.3916 -63.1483 -15.9804 -37.7824 18.6966 -8.26179 10.2073 0.0334977 68.3247 19.7389 37.8441 -22.2954 -21.8219 56.7951 34.5307 -48.313 25.1726 -7.43285 -9.80921 -6.29264 -0.962644 0.0522702 0.23104 10.9359 9.8964 7.68182 6.42484 -7.44911 7.91043 -2.03509 7.74708 0.153655 -0.814797 1.99924 2.942 
-38.0049 99.4793 4.61214 1.2156 0.546998 -157.254 -3.81709 13.4054 2.82011 -36.1748 51.3318 -54.0383 17.9238 -15.1958 -62.6289 -14.9613 -36.8333 19.6458 -8.28479 10.5996 0.0399734 68.8758 20.1503 37.5757 -22.4245 -22.1255 57.3418 34.8491 -49.0752 25.4272 -6.97039 -11.0161 -6.54329 -1.4223 0.0488658 0.396863 12.1987 8.39629 7.42915 6.67294 -8.50193 7.38879 -2.80171 10.2121 0.238998 -0.845872 0.468158 2.33005 
-37.6568 99.254 3.34757 0.60239 0.310631 -155.742 -4.00325 13.5317 2.82651 -36.6437 50.9706 -54.5164 17.8764 -15.0658 -62.2841 -12.4592 -34.9751 21.6348 -8.30184 11.0301 0.0447933 69.5346 20.3665 37.3242 -22.594 -22.3644 57.7664 33.4225 -48.3446 24.0786 -6.70539 -11.1755 -7.63208 -1.51032 0.00071162 0.436667 12.9882 8.40744 7.16186 6.86524 -9.1968 6.63717 -3.59629 12.5209 0.36302 -0.994233 -0.964242 1.72425 
